<?xml version="1.0" encoding="UTF-8"?>
<!DOCTYPE svg PUBLIC "-//W3C//DTD SVG 1.1//EN" "http://www.w3.org/Graphics/SVG/1.1/DTD/svg11.dtd">
<svg xmlns="http://www.w3.org/2000/svg" version="1.1" width="4700px" height="3180px" style="shape-rendering:geometricPrecision; text-rendering:geometricPrecision; image-rendering:optimizeQuality; fill-rule:evenodd; clip-rule:evenodd" xmlns:xlink="http://www.w3.org/1999/xlink">
<g><path style="opacity:0.993" fill="#02ac4f" d="M 4087.5,906.5 C 4058.12,905.84 4028.79,904.34 3999.5,902C 3924.27,800.428 3837.6,709.428 3739.5,629C 3575.72,497.394 3394.39,395.061 3195.5,322C 2938.96,229.137 2673.96,182.971 2400.5,183.5C 2095.45,182.542 1802.45,240.042 1521.5,356C 1333.97,434.432 1164.31,540.099 1012.5,673C 936.594,741.217 868.26,815.884 807.5,897C 778.5,898.25 749.5,899.417 720.5,900.5C 782.159,810.262 853.159,727.429 933.5,652C 1077.62,518.874 1238.95,410.541 1417.5,327C 1671.47,209.839 1938.14,141.172 2217.5,121C 2500.98,99.6798 2779.65,127.013 3053.5,203C 3278.76,266.15 3487.1,363.817 3678.5,496C 3810.91,588.724 3927.74,698.558 4029,825.5C 4049.49,851.822 4068.99,878.822 4087.5,906.5 Z"/></g>
<g><path style="opacity:0.999" fill="#fefefe" d="M 4087.5,906.5 C 4207.55,913.17 4327.55,920.67 4447.5,929C 4508.09,936.509 4561.76,959.509 4608.5,998C 4666.73,1051.65 4693.56,1118.15 4689,1197.5C 4656.31,1422.97 4620.65,1647.97 4582,1872.5C 4568.74,1941.8 4554.07,2010.8 4538,2079.5C 4511.11,2165.71 4458.94,2231.88 4381.5,2278C 4348.75,2296.58 4313.75,2308.58 4276.5,2314C 4197.55,2321.22 4118.55,2327.72 4039.5,2333.5C 4008.5,2335.57 3977.5,2337.74 3946.5,2340C 3861.87,2440.65 3766.54,2529.31 3660.5,2606C 3513.84,2710.68 3355.17,2794.01 3184.5,2856C 2962.88,2935.56 2734.21,2979.89 2498.5,2989C 2208.45,3000.85 1926.12,2960.52 1651.5,2868C 1445.66,2797.78 1257.66,2696.44 1087.5,2564C 1005.45,2499.29 930.447,2426.95 862.5,2347C 831.838,2345 801.172,2343.17 770.5,2341.5C 599.042,2329.04 427.708,2314.87 256.5,2299C 215.16,2294.42 175.493,2283.75 137.5,2267C 81.4455,2241.43 43.9455,2199.26 25,2140.5C 11.6646,2097.82 6.66459,2054.15 10,2009.5C 24.2942,1851.77 44.2942,1694.77 70,1538.5C 90.6674,1411.16 111.334,1283.83 132,1156.5C 144.248,1108.66 166.914,1066.66 200,1030.5C 250.934,975.941 312.767,939.775 385.5,922C 396.738,919.682 408.072,918.016 419.5,917C 519.81,911.011 620.143,905.511 720.5,900.5C 749.5,899.417 778.5,898.25 807.5,897C 868.26,815.884 936.594,741.217 1012.5,673C 1164.31,540.099 1333.97,434.432 1521.5,356C 1802.45,240.042 2095.45,182.542 2400.5,183.5C 2673.96,182.971 2938.96,229.137 3195.5,322C 3394.39,395.061 3575.72,497.394 3739.5,629C 3837.6,709.428 3924.27,800.428 3999.5,902C 4028.79,904.34 4058.12,905.84 4087.5,906.5 Z"/></g>
<g><path style="opacity:1" fill="#01ac4f" d="M 2342.5,310.5 C 2354.17,310.5 2365.83,310.5 2377.5,310.5C 2377.5,401.833 2377.5,493.167 2377.5,584.5C 2355.83,584.333 2334.16,584.5 2312.5,585C 2296.63,587.384 2281.63,592.384 2267.5,600C 2111.52,593.622 1958.18,570.289 1807.5,530C 1806.09,529.632 1805.09,528.799 1804.5,527.5C 1846.69,468.801 1891.35,411.968 1938.5,357C 2071.96,329.82 2206.62,314.32 2342.5,310.5 Z"/></g>
<g><path style="opacity:1" fill="#bae8cf" d="M 2448.5,311.5 C 2441.17,311.5 2433.83,311.5 2426.5,311.5C 2426.5,402.833 2426.5,494.167 2426.5,585.5C 2425.5,494.002 2425.17,402.335 2425.5,310.5C 2433.35,310.175 2441.02,310.508 2448.5,311.5 Z"/></g>
<g><path style="opacity:1" fill="#01ac4f" d="M 2448.5,311.5 C 2582.81,314.08 2715.81,328.58 2847.5,355C 2898.73,412.716 2946.73,472.882 2991.5,535.5C 2839.67,574.552 2685.34,596.386 2528.5,601C 2495.63,588.801 2461.63,583.634 2426.5,585.5C 2426.5,494.167 2426.5,402.833 2426.5,311.5C 2433.83,311.5 2441.17,311.5 2448.5,311.5 Z"/></g>
<g><path style="opacity:1" fill="#04ac4f" d="M 2928.5,373.5 C 3023.41,396.081 3116.08,425.581 3206.5,462C 3152.76,486.245 3097.43,505.912 3040.5,521C 3004.48,470.786 2967.15,421.619 2928.5,373.5 Z"/></g>
<g><path style="opacity:1" fill="#07ac50" d="M 1853.5,375.5 C 1855.53,375.338 1857.53,375.505 1859.5,376C 1823.05,420.586 1788.05,466.253 1754.5,513C 1702.15,498.491 1651.48,479.491 1602.5,456C 1684.68,423.993 1768.35,397.16 1853.5,375.5 Z"/></g>
<g><path style="opacity:1" fill="#02ac4f" d="M 1518.5,869.5 C 1512.17,869.5 1505.83,869.5 1499.5,869.5C 1499.83,859.652 1499.49,849.986 1498.5,840.5C 1496.02,773.422 1472.02,715.589 1426.5,667C 1390.99,633.536 1348.66,615.703 1299.5,613.5C 1297.17,612.833 1294.83,612.167 1292.5,611.5C 1370.94,562.273 1452.94,519.273 1538.5,482.5C 1597.62,512.983 1658.95,537.983 1722.5,557.5C 1701.29,590.902 1679.79,624.235 1658,657.5C 1615.34,725.797 1576.01,796.13 1540,868.5C 1532.92,869.48 1525.75,869.813 1518.5,869.5 Z"/></g>
<g><path style="opacity:1" fill="#01ac4f" d="M 3267.5,872.5 C 3261.93,871.793 3256.27,871.126 3250.5,870.5C 3198.23,764.84 3138.9,663.673 3072.5,567C 3140.72,545.97 3206.89,519.804 3271,488.5C 3434.61,560.321 3583.11,654.821 3716.5,772C 3758.54,810.702 3798.54,851.369 3836.5,894C 3646.91,885.605 3457.24,878.439 3267.5,872.5 Z"/></g>
<g><path style="opacity:1" fill="#01ac4f" d="M 1771.5,573.5 C 1917.8,614.05 2066.8,639.384 2218.5,649.5C 2212.33,662.166 2207.83,675.499 2205,689.5C 2196.65,746.11 2188.82,802.777 2181.5,859.5C 1986.15,861.132 1790.82,863.798 1595.5,867.5C 1600.71,856.077 1606.21,844.744 1612,833.5C 1660.4,743.664 1713.56,656.997 1771.5,573.5 Z"/></g>
<g><path style="opacity:1" fill="#02ac4f" d="M 3195.5,868.5 C 3189.36,869.49 3183.02,869.823 3176.5,869.5C 3069.5,867.282 2962.5,865.115 2855.5,863C 2797.83,862.299 2740.17,861.799 2682.5,861.5C 2684.24,780.191 2657.91,709.691 2603.5,650C 2733.46,640.149 2861.8,620.149 2988.5,590C 2999.75,586.527 3011.09,583.36 3022.5,580.5C 3087.24,671.942 3144.91,767.942 3195.5,868.5 Z"/></g>
<g><path style="opacity:1" fill="#83d5a8" d="M 1292.5,611.5 C 1294.83,612.167 1297.17,612.833 1299.5,613.5C 1296.15,613.665 1292.82,613.498 1289.5,613C 1290.24,611.961 1291.24,611.461 1292.5,611.5 Z"/></g>
<g><path style="opacity:1" fill="#c5451a" d="M 2564.5,962.5 C 2563.54,964.265 2563.21,966.265 2563.5,968.5C 2576.83,968.5 2590.17,968.5 2603.5,968.5C 2682.83,969.573 2762.16,970.407 2841.5,971C 2898.83,978.33 2939,1008.5 2962,1061.5C 2973.83,1092.84 2977.5,1125.17 2973,1158.5C 2928.37,1486.9 2880.37,1814.9 2829,2142.5C 2814.62,2198.15 2783.12,2240.99 2734.5,2271C 2714.59,2282.08 2693.25,2288.75 2670.5,2291C 2606.17,2292.04 2541.84,2292.71 2477.5,2293C 2391.48,2293.98 2305.48,2293.64 2219.5,2292C 2169.94,2281.8 2134.77,2253.64 2114,2207.5C 2101.6,2177.7 2096.93,2146.7 2100,2114.5C 2120.79,1954.71 2142.46,1795.04 2165,1635.5C 2208.79,1324.11 2252.79,1012.78 2297,701.5C 2299.17,694 2304,689.167 2311.5,687C 2356.83,686.333 2402.17,686.333 2447.5,687C 2498.2,692.388 2535.36,717.555 2559,762.5C 2574.2,793.316 2580.53,825.982 2578,860.5C 2573.92,894.566 2569.42,928.566 2564.5,962.5 Z"/></g>
<g><path style="opacity:1" fill="#c5451a" d="M 1255.5,713.5 C 1325.75,710.85 1371.58,742.85 1393,809.5C 1398.77,834.202 1400.1,859.202 1397,884.5C 1318.71,1337.24 1254.71,1791.91 1205,2248.5C 1200.74,2259.72 1192.58,2264.38 1180.5,2262.5C 1135.45,2260.39 1090.45,2257.56 1045.5,2254C 996.631,2243.12 960.465,2215.62 937,2171.5C 922.846,2141.77 916.846,2110.43 919,2077.5C 961.722,1699.78 1016.39,1323.78 1083,949.5C 1095.57,878.088 1108.57,806.755 1122,735.5C 1124.5,727.667 1129.67,722.5 1137.5,720C 1177,717.958 1216.33,715.791 1255.5,713.5 Z"/></g>
<g><path style="opacity:1" fill="#f4811f" d="M 2333.5,726.5 C 2372.5,726.333 2411.5,726.5 2450.5,727C 2488.67,733.832 2514.84,755.332 2529,791.5C 2538.41,816.762 2541.07,842.762 2537,869.5C 2531.74,907.987 2526.57,946.487 2521.5,985C 2522.33,990.816 2524.33,996.15 2527.5,1001C 2531.71,1003.27 2536.05,1005.27 2540.5,1007C 2635.83,1008.21 2731.16,1009.21 2826.5,1010C 2875.84,1011.58 2909.34,1035.42 2927,1081.5C 2933.03,1098.67 2935.69,1116.34 2935,1134.5C 2909.3,1333.43 2881.63,1532.1 2852,1730.5C 2832.32,1863.94 2811.99,1997.27 2791,2130.5C 2778.52,2181.96 2748.69,2219.46 2701.5,2243C 2691.54,2247.07 2681.2,2249.74 2670.5,2251C 2632.51,2252.05 2594.51,2252.72 2556.5,2253C 2447.5,2254.18 2338.5,2254.18 2229.5,2253C 2193.94,2246.82 2168.11,2227.65 2152,2195.5C 2139.92,2169.03 2135.92,2141.36 2140,2112.5C 2203.15,1650.29 2267.65,1188.29 2333.5,726.5 Z"/></g>
<g><path style="opacity:1" fill="#f4811f" d="M 1248.5,753.5 C 1300.75,747.19 1335.92,768.523 1354,817.5C 1358.52,833.206 1360.19,849.206 1359,865.5C 1338.78,989.46 1318.78,1113.46 1299,1237.5C 1247.46,1564.45 1203.96,1892.45 1168.5,2221.5C 1130.11,2220.22 1091.78,2218.05 1053.5,2215C 1006.42,2203.93 976.257,2175.09 963,2128.5C 958.982,2113.06 957.648,2097.4 959,2081.5C 996.198,1748.11 1043.2,1416.11 1100,1085.5C 1118.58,977.03 1137.91,868.697 1158,760.5C 1161.17,758.795 1164.67,757.962 1168.5,758C 1195.34,756.827 1222.01,755.327 1248.5,753.5 Z"/></g>
<g><path style="opacity:1" fill="#74d09e" d="M 1498.5,840.5 C 1499.49,849.986 1499.83,859.652 1499.5,869.5C 1505.83,869.5 1512.17,869.5 1518.5,869.5C 1512.02,870.491 1505.35,870.824 1498.5,870.5C 1498.5,860.5 1498.5,850.5 1498.5,840.5 Z"/></g>
<g><path style="opacity:1" fill="#67cc94" d="M 3195.5,868.5 C 3196.04,868.56 3196.38,868.893 3196.5,869.5C 3189.68,870.818 3183.01,870.818 3176.5,869.5C 3183.02,869.823 3189.36,869.49 3195.5,868.5 Z"/></g>
<g><path style="opacity:1" fill="#6ccd97" d="M 3250.5,870.5 C 3256.27,871.126 3261.93,871.793 3267.5,872.5C 3261.4,873.117 3255.74,872.45 3250.5,870.5 Z"/></g>
<g><path style="opacity:1" fill="#f0cfc3" d="M 2564.5,962.5 C 2564.5,964.167 2564.5,965.833 2564.5,967.5C 2577.68,967.171 2590.68,967.505 2603.5,968.5C 2590.17,968.5 2576.83,968.5 2563.5,968.5C 2563.21,966.265 2563.54,964.265 2564.5,962.5 Z"/></g>
<g><path style="opacity:1" fill="#c5451a" d="M 1983.5,968.5 C 2006.62,967.627 2029.62,968.794 2052.5,972C 2098.4,984.228 2130.23,1012.39 2148,1056.5C 2159.09,1086.23 2162.76,1116.9 2159,1148.5C 2111.48,1472.54 2066.48,1796.87 2024,2121.5C 2016.51,2181.03 1988.67,2228.2 1940.5,2263C 1920.26,2275.75 1898.26,2283.75 1874.5,2287C 1729.12,2285 1583.79,2281 1438.5,2275C 1380.01,2271.5 1336.84,2244 1309,2192.5C 1294.08,2162.22 1287.74,2130.22 1290,2096.5C 1327.12,1777.52 1371.12,1459.52 1422,1142.5C 1433.62,1079.37 1466.45,1030.87 1520.5,997C 1543.14,984.007 1567.47,976.673 1593.5,975C 1723.67,973.104 1853.67,970.937 1983.5,968.5 Z"/></g>
<g><path style="opacity:1" fill="#c5451a" d="M 3086.5,975.5 C 3135.53,976.193 3184.53,977.693 3233.5,980C 3275.59,986.953 3308.42,1008.12 3332,1043.5C 3355.65,1082.42 3363.65,1124.42 3356,1169.5C 3321.11,1432.69 3282.61,1695.36 3240.5,1957.5C 3266.83,1957.05 3293.17,1956.55 3319.5,1956C 3335.91,1955.63 3352.07,1954.46 3368,1952.5C 3412.65,1685.58 3452.31,1417.91 3487,1149.5C 3496.39,1083.17 3530.89,1035 3590.5,1005C 3618.32,992.973 3647.32,988.973 3677.5,993C 3715.5,994.622 3753.5,996.289 3791.5,998C 3795.71,1000.27 3800.05,1002.27 3804.5,1004C 3805.89,1007.4 3807.06,1010.9 3808,1014.5C 3808.19,1025.53 3807.52,1036.53 3806,1047.5C 3762.38,1406.16 3707.38,1763.16 3641,2118.5C 3618.7,2189.14 3572.53,2236.3 3502.5,2260C 3497.14,2260.87 3491.81,2261.87 3486.5,2263C 3407.55,2267.88 3328.55,2271.88 3249.5,2275C 3177.18,2277.97 3104.84,2280.3 3032.5,2282C 2972.44,2272.28 2933.94,2238.12 2917,2179.5C 2910.34,2150 2909.67,2120.33 2915,2090.5C 2973.39,1724.68 3026.06,1358.01 3073,990.5C 3075.26,983.407 3079.76,978.407 3086.5,975.5 Z"/></g>
<g><path style="opacity:1" fill="#c5451a" d="M 803.5,1000.5 C 823.519,1000.26 843.519,1000.76 863.5,1002C 919.418,1010.91 955.918,1042.41 973,1096.5C 979.552,1121.15 981.219,1146.15 978,1171.5C 965.009,1247.11 952.343,1322.78 940,1398.5C 938.97,1405.98 937.303,1413.32 935,1420.5C 931.635,1425.19 927.135,1428.35 921.5,1430C 858.163,1430.52 794.83,1430.85 731.5,1431C 691.632,1424.14 664.799,1401.64 651,1363.5C 645.981,1347.05 645.148,1330.38 648.5,1313.5C 597.835,1314.03 547.168,1314.36 496.5,1314.5C 463.095,1518 433.428,1722 407.5,1926.5C 458.783,1930.11 510.116,1932.78 561.5,1934.5C 571.596,1879.93 581.262,1825.26 590.5,1770.5C 535.308,1767.48 502.142,1738.82 491,1684.5C 490.157,1672.13 490.49,1659.8 492,1647.5C 500.441,1595.19 508.774,1542.85 517,1490.5C 519.408,1483.09 524.242,1477.92 531.5,1475C 633.521,1474.02 735.521,1474.35 837.5,1476C 878.637,1480.14 903.804,1502.31 913,1542.5C 913.832,1557.53 913.499,1572.53 912,1587.5C 896.576,1722.74 879.242,1857.74 860,1992.5C 854.326,2028.88 848.326,2065.21 842,2101.5C 824.479,2204.17 763.645,2251.83 659.5,2244.5C 527.536,2240.76 396.203,2229.59 265.5,2211C 243.159,2207.83 221.159,2203.17 199.5,2197C 175.281,2189.48 154.114,2176.98 136,2159.5C 122.364,2142.9 112.364,2124.24 106,2103.5C 97.8561,2074.4 94.5228,2044.73 96,2014.5C 97.2276,1981.09 99.5609,1947.75 103,1914.5C 128.912,1674.2 163.579,1435.2 207,1197.5C 211.431,1171.65 221.098,1147.98 236,1126.5C 279.274,1068.63 336.774,1033.8 408.5,1022C 540.068,1010.14 671.734,1002.97 803.5,1000.5 Z"/></g>
<g><path style="opacity:1" fill="#f4811f" d="M 1980.5,1008.5 C 1997.84,1008.33 2015.17,1008.5 2032.5,1009C 2071.23,1015.4 2097.73,1036.9 2112,1073.5C 2120.27,1097.59 2122.6,1122.26 2119,1147.5C 2071.44,1476.96 2025.44,1806.62 1981,2136.5C 1970.32,2182.76 1944.15,2216.93 1902.5,2239C 1891.94,2243.63 1880.94,2246.63 1869.5,2248C 1725.45,2245.54 1581.45,2241.21 1437.5,2235C 1394.25,2231.72 1362.75,2210.89 1343,2172.5C 1331.84,2149.05 1327.51,2124.38 1330,2098.5C 1367.38,1776.15 1412.05,1454.81 1464,1134.5C 1478.79,1080.38 1511.96,1042.55 1563.5,1021C 1573.93,1017.71 1584.59,1015.71 1595.5,1015C 1724,1013.09 1852.33,1010.93 1980.5,1008.5 Z"/></g>
<g><path style="opacity:1" fill="#c5451a" d="M 3956.5,1775.5 C 3950.36,1775.16 3944.03,1775.16 3937.5,1775.5C 3902.93,1775.71 3874.1,1763.04 3851,1737.5C 3830.66,1714.83 3815.99,1688.83 3807,1659.5C 3804.46,1648.62 3802.62,1637.62 3801.5,1626.5C 3808.27,1563.99 3816.44,1501.66 3826,1439.5C 3842.43,1341.27 3858.09,1242.94 3873,1144.5C 3888.59,1080.78 3927.09,1037.62 3988.5,1015C 4004.28,1010.08 4020.45,1007.58 4037,1007.5C 4154.68,1009.98 4272.18,1015.81 4389.5,1025C 4414.94,1027.34 4440.27,1030.34 4465.5,1034C 4531.72,1051.89 4576.55,1093.06 4600,1157.5C 4605.18,1177.35 4605.85,1197.35 4602,1217.5C 4591.54,1284.13 4581.21,1350.8 4571,1417.5C 4568.9,1424.6 4564.4,1429.43 4557.5,1432C 4494.5,1432.54 4431.5,1432.21 4368.5,1431C 4323.88,1421.72 4296.38,1394.88 4286,1350.5C 4284.67,1338.88 4284.17,1327.21 4284.5,1315.5C 4241.84,1314.28 4199.17,1313.28 4156.5,1312.5C 4148.16,1364.51 4139.83,1416.51 4131.5,1468.5C 4221.55,1468.52 4311.55,1468.52 4401.5,1468.5C 4453.13,1471.69 4492.63,1495.03 4520,1538.5C 4531.97,1559.46 4537.8,1582.13 4537.5,1606.5C 4524.1,1748.47 4499.6,1888.47 4464,2026.5C 4444.36,2107.12 4397.19,2165.29 4322.5,2201C 4311.4,2205.14 4300.07,2208.48 4288.5,2211C 4142.32,2228.57 3995.66,2240.07 3848.5,2245.5C 3789.07,2246.39 3747.57,2219.72 3724,2165.5C 3713.87,2137.21 3711.2,2108.21 3716,2078.5C 3730.21,1999.21 3744.21,1919.88 3758,1840.5C 3762.17,1824.31 3772.67,1817.48 3789.5,1820C 3840.84,1818.77 3892.18,1817.27 3943.5,1815.5C 3993.92,1812.28 4027.75,1834.28 4045,1881.5C 4049.1,1897.69 4049.6,1914.02 4046.5,1930.5C 4090.14,1927.99 4133.81,1925.99 4177.5,1924.5C 4186.5,1874.51 4195.5,1824.51 4204.5,1774.5C 4121.84,1775.2 4039.17,1775.53 3956.5,1775.5 Z"/></g>
<g><path style="opacity:1" fill="#f4811f" d="M 3109.5,1015.5 C 3146.51,1016.05 3183.51,1016.89 3220.5,1018C 3265.11,1023.62 3295.28,1047.45 3311,1089.5C 3318.1,1111.63 3320.43,1134.3 3318,1157.5C 3282.29,1429.47 3242.29,1700.8 3198,1971.5C 3196.89,1978.63 3198.23,1985.3 3202,1991.5C 3207.64,1994.32 3213.47,1996.66 3219.5,1998.5C 3276.17,1996.88 3332.83,1995.05 3389.5,1993C 3395.84,1991.33 3400.34,1987.49 3403,1981.5C 3449.93,1705.69 3491.26,1429.02 3527,1151.5C 3534.32,1104.64 3558.15,1069.14 3598.5,1045C 3615.29,1036.44 3633.12,1031.94 3652,1031.5C 3689.83,1033.08 3727.66,1034.58 3765.5,1036C 3766.52,1036.52 3767.18,1037.35 3767.5,1038.5C 3724.17,1393.83 3670,1747.5 3605,2099.5C 3592.84,2145.7 3566.67,2181.53 3526.5,2207C 3508.53,2217.43 3489.2,2223.43 3468.5,2225C 3323.57,2232.69 3178.57,2238.36 3033.5,2242C 3000.28,2236.65 2976.44,2218.81 2962,2188.5C 2951.78,2164.44 2948.45,2139.44 2952,2113.5C 3010.24,1748.32 3062.74,1382.32 3109.5,1015.5 Z"/></g>
<g><path style="opacity:1" fill="#f4811f" d="M 782.5,1041.5 C 804.836,1041.33 827.169,1041.5 849.5,1042C 900.64,1046.8 930.14,1074.64 938,1125.5C 939.314,1135.14 939.648,1144.8 939,1154.5C 926.658,1232.22 913.992,1309.88 901,1387.5C 881.731,1389.32 862.231,1390.15 842.5,1390C 806.5,1390.67 770.5,1390.67 734.5,1390C 714.079,1386.21 699.913,1374.71 692,1355.5C 689.484,1348.89 687.984,1342.06 687.5,1335C 690.276,1320.24 692.109,1305.41 693,1290.5C 691.595,1286.78 690.095,1283.12 688.5,1279.5C 683.953,1277.06 679.287,1274.89 674.5,1273C 608.489,1272.4 542.489,1273.07 476.5,1275C 466.813,1277.36 461.313,1283.52 460,1293.5C 424.097,1503.82 392.764,1714.82 366,1926.5C 364.945,1934.15 364.612,1941.82 365,1949.5C 368.29,1959.46 375.123,1964.96 385.5,1966C 447.826,1969.62 510.16,1973.12 572.5,1976.5C 585.602,1978.19 594.102,1972.86 598,1960.5C 611.272,1891.47 623.772,1822.31 635.5,1753C 634.216,1747.36 632.55,1741.86 630.5,1736.5C 625.713,1734.61 621.047,1732.44 616.5,1730C 604.167,1729.67 591.833,1729.33 579.5,1729C 558.443,1725.28 543.943,1713.45 536,1693.5C 531.942,1683.18 530.608,1672.51 532,1661.5C 539.548,1612.83 547.048,1564.16 554.5,1515.5C 645.5,1514.82 736.5,1514.65 827.5,1515C 862.236,1517.94 877.403,1536.77 873,1571.5C 856.394,1711.35 838.394,1851.01 819,1990.5C 812.843,2034.11 805.176,2077.44 796,2120.5C 781.451,2174.38 746.285,2202.22 690.5,2204C 544.696,2201.88 399.696,2189.88 255.5,2168C 230.512,2164.84 206.846,2157.5 184.5,2146C 162.365,2131.27 148.532,2110.77 143,2084.5C 138.287,2065.79 135.787,2046.79 135.5,2027.5C 138.351,1966.97 143.518,1906.64 151,1846.5C 176.543,1627.7 209.543,1410.03 250,1193.5C 255.972,1170.88 266.639,1150.88 282,1133.5C 329.587,1081.73 388.754,1056.56 459.5,1058C 567.179,1049.6 674.846,1044.1 782.5,1041.5 Z"/></g>
<g><path style="opacity:1" fill="#f4811f" d="M 4030.5,1048.5 C 4137.96,1050.51 4245.29,1055.34 4352.5,1063C 4390.05,1065.62 4427.38,1069.95 4464.5,1076C 4510.71,1091.55 4542.54,1122.05 4560,1167.5C 4561.73,1175.41 4562.9,1183.41 4563.5,1191.5C 4553.87,1258.56 4543.87,1325.56 4533.5,1392.5C 4480.5,1391.74 4427.5,1390.91 4374.5,1390C 4351.93,1385.09 4336.43,1371.93 4328,1350.5C 4324.87,1341.28 4324.2,1331.95 4326,1322.5C 4329.48,1313.07 4331.48,1303.41 4332,1293.5C 4331.2,1290.11 4330.2,1286.77 4329,1283.5C 4324.25,1280.87 4319.41,1278.37 4314.5,1276C 4256.86,1273.88 4199.19,1272.05 4141.5,1270.5C 4127.93,1271.57 4120.43,1278.91 4119,1292.5C 4108.38,1356.87 4097.55,1421.2 4086.5,1485.5C 4087.71,1491.32 4089.37,1496.99 4091.5,1502.5C 4096.05,1504.94 4100.71,1507.11 4105.5,1509C 4204.17,1509.33 4302.83,1509.67 4401.5,1510C 4449.26,1513.44 4480.09,1537.94 4494,1583.5C 4496.92,1597.44 4497.25,1611.44 4495,1625.5C 4483.53,1727.3 4467.2,1828.3 4446,1928.5C 4436.89,1969.59 4426.23,2010.25 4414,2050.5C 4393.12,2100.78 4358.29,2137.94 4309.5,2162C 4301.36,2165.27 4293.03,2167.93 4284.5,2170C 4144.98,2187.2 4004.98,2198.54 3864.5,2204C 3837.83,2208.23 3813.16,2203.23 3790.5,2189C 3766.8,2168.43 3754.8,2142.26 3754.5,2110.5C 3754.95,2101.46 3755.78,2092.46 3757,2083.5C 3770,2009.83 3783,1936.17 3796,1862.5C 3796.5,1862 3797,1861.5 3797.5,1861C 3850.52,1859.4 3903.52,1857.56 3956.5,1855.5C 3988.1,1859.1 4005.1,1876.76 4007.5,1908.5C 4005.76,1922.84 4004.26,1937.18 4003,1951.5C 4004.2,1956.26 4005.7,1960.93 4007.5,1965.5C 4012.02,1967.92 4016.68,1970.09 4021.5,1972C 4081.2,1969.98 4140.87,1966.98 4200.5,1963C 4208.61,1959.89 4213.45,1954.05 4215,1945.5C 4226.33,1884.17 4237.67,1822.83 4249,1761.5C 4249.28,1753.47 4247.45,1745.97 4243.5,1739C 4237.37,1735.62 4230.87,1733.46 4224,1732.5C 4128.85,1734.31 4033.68,1735.15 3938.5,1735C 3915.95,1735.14 3897.12,1726.97 3882,1710.5C 3871.43,1697.7 3862.1,1684.03 3854,1669.5C 3847.76,1655.3 3843.93,1640.46 3842.5,1625C 3851.26,1551.98 3861.43,1479.15 3873,1406.5C 3887.23,1318.8 3901.56,1231.14 3916,1143.5C 3928.56,1101.61 3955.06,1072.44 3995.5,1056C 4007.04,1052.26 4018.71,1049.76 4030.5,1048.5 Z"/></g>
<g><path style="opacity:1" fill="#c5451a" d="M 2501.5,1247.5 C 2561.49,1248.26 2621.49,1248.76 2681.5,1249C 2686.19,1250.78 2690.69,1252.95 2695,1255.5C 2697.13,1260.73 2698.96,1266.06 2700.5,1271.5C 2673.75,1462.55 2646.59,1653.55 2619,1844.5C 2611.75,1896.97 2603.75,1949.3 2595,2001.5C 2591.51,2008.16 2586.01,2011.66 2578.5,2012C 2518.5,2012.67 2458.5,2012.67 2398.5,2012C 2393.8,2010.23 2389.3,2008.07 2385,2005.5C 2383.11,2000.1 2381.61,1994.6 2380.5,1989C 2414.33,1749.5 2448.17,1510 2482,1270.5C 2482.66,1257.69 2489.16,1250.02 2501.5,1247.5 Z"/></g>
<g><path style="opacity:1" fill="#c5451a" d="M 1775.5,1249.5 C 1804.5,1249.33 1833.5,1249.5 1862.5,1250C 1866.83,1252.17 1871.17,1254.33 1875.5,1256.5C 1877.55,1261.88 1879.22,1267.38 1880.5,1273C 1845.13,1513.25 1811.63,1753.75 1780,1994.5C 1777.74,2001.1 1773.24,2005.26 1766.5,2007C 1705.49,2006.82 1644.49,2005.82 1583.5,2004C 1578.68,2002.09 1574.02,1999.92 1569.5,1997.5C 1567.22,1992 1565.56,1986.33 1564.5,1980.5C 1594.73,1741.42 1627.89,1502.75 1664,1264.5C 1666.57,1257.6 1671.4,1253.1 1678.5,1251C 1711,1250.83 1743.34,1250.33 1775.5,1249.5 Z"/></g>
<g><path style="opacity:1" fill="#fefefe" d="M 2541.5,1972.5 C 2502.17,1972.5 2462.83,1972.5 2423.5,1972.5C 2423.5,1971.17 2423.5,1969.83 2423.5,1968.5C 2455.5,1741.49 2487.5,1514.49 2519.5,1287.5C 2565.5,1287.5 2611.5,1287.5 2657.5,1287.5C 2644.94,1383.24 2631.78,1478.9 2618,1574.5C 2598.52,1707.09 2579.35,1839.76 2560.5,1972.5C 2554.17,1972.5 2547.83,1972.5 2541.5,1972.5 Z"/></g>
<g><path style="opacity:1" fill="#fefefe" d="M 1704.5,1289.5 C 1748.83,1289.5 1793.17,1289.5 1837.5,1289.5C 1815.14,1446.82 1792.97,1604.16 1771,1761.5C 1761.45,1830.1 1752.61,1898.77 1744.5,1967.5C 1698.49,1967.16 1652.49,1966.49 1606.5,1965.5C 1635.12,1740.18 1666.12,1515.18 1699.5,1290.5C 1701.41,1290.78 1703.08,1290.45 1704.5,1289.5 Z"/></g>
<g><path style="opacity:1" fill="#da8c70" d="M 3956.5,1775.5 C 3950.02,1776.68 3943.68,1776.68 3937.5,1775.5C 3944.03,1775.16 3950.36,1775.16 3956.5,1775.5 Z"/></g>
<g><path style="opacity:1" fill="#e19e87" d="M 2423.5,1968.5 C 2423.5,1969.83 2423.5,1971.17 2423.5,1972.5C 2462.83,1972.5 2502.17,1972.5 2541.5,1972.5C 2502,1973.5 2462.34,1973.83 2422.5,1973.5C 2422.22,1971.59 2422.55,1969.92 2423.5,1968.5 Z"/></g>
<g><path style="opacity:0.993" fill="#02ac4f" d="M 4039.5,2333.5 C 4025.17,2352.8 4010.33,2371.8 3995,2390.5C 3893.28,2508.93 3778.11,2611.43 3649.5,2698C 3452.67,2828.67 3239.33,2923.67 3009.5,2983C 2682.41,3066.36 2352.08,3082.02 2018.5,3030C 1783.53,2993.12 1560.19,2920.79 1348.5,2813C 1174.08,2723.61 1017.91,2609.11 880,2469.5C 848.18,2436.35 817.846,2402.02 789,2366.5C 782.591,2358.27 776.425,2349.94 770.5,2341.5C 801.172,2343.17 831.838,2345 862.5,2347C 930.447,2426.95 1005.45,2499.29 1087.5,2564C 1257.66,2696.44 1445.66,2797.78 1651.5,2868C 1926.12,2960.52 2208.45,3000.85 2498.5,2989C 2734.21,2979.89 2962.88,2935.56 3184.5,2856C 3355.17,2794.01 3513.84,2710.68 3660.5,2606C 3766.54,2529.31 3861.87,2440.65 3946.5,2340C 3977.5,2337.74 4008.5,2335.57 4039.5,2333.5 Z"/></g>
<g><path style="opacity:1" fill="#02ac4f" d="M 3759.5,2352.5 C 3762.52,2352.34 3765.52,2352.5 3768.5,2353C 3664.79,2454.07 3549.79,2539.74 3423.5,2610C 3369.09,2639.7 3313.43,2667.04 3256.5,2692C 3254.5,2692.67 3252.5,2692.67 3250.5,2692C 3222.98,2678.24 3194.98,2665.57 3166.5,2654C 3132.35,2641.12 3098.02,2628.95 3063.5,2617.5C 3115.62,2541.61 3163.95,2463.28 3208.5,2382.5C 3315.18,2377.58 3421.84,2372.42 3528.5,2367C 3605.68,2362.53 3682.68,2357.7 3759.5,2352.5 Z"/></g>
<g><path style="opacity:1" fill="#01ac4f" d="M 1033.5,2358.5 C 1215.78,2368.64 1398.12,2377.64 1580.5,2385.5C 1625.05,2466.28 1673.38,2544.61 1725.5,2620.5C 1672.78,2637.86 1621.11,2658.02 1570.5,2681C 1561.29,2685.94 1551.96,2690.27 1542.5,2694C 1357.31,2615.63 1191.65,2508.3 1045.5,2372C 1040.9,2367.91 1036.9,2363.41 1033.5,2358.5 Z"/></g>
<g><path style="opacity:1" fill="#02ac4f" d="M 3116.5,2384.5 C 3128.19,2384.17 3139.85,2384.5 3151.5,2385.5C 3109.42,2460.02 3064.09,2532.36 3015.5,2602.5C 3014.67,2602.83 3013.83,2603.17 3013,2603.5C 2872.71,2567.27 2730.21,2544.43 2585.5,2535C 2532.55,2531.67 2479.55,2529.51 2426.5,2528.5C 2426.5,2485.17 2426.5,2441.83 2426.5,2398.5C 2656.75,2398.01 2886.75,2393.35 3116.5,2384.5 Z"/></g>
<g><path style="opacity:1" fill="#01ac4f" d="M 1636.5,2387.5 C 1639.31,2386.84 1642.31,2386.5 1645.5,2386.5C 1889.43,2394.41 2133.43,2398.41 2377.5,2398.5C 2377.5,2441.83 2377.5,2485.17 2377.5,2528.5C 2221.1,2529.68 2066.1,2544.85 1912.5,2574C 1866.67,2583.5 1821.17,2594.33 1776,2606.5C 1770.88,2600.96 1766.21,2594.96 1762,2588.5C 1717.64,2523.12 1675.81,2456.12 1636.5,2387.5 Z"/></g>
<g><path style="opacity:1" fill="#01ac4f" d="M 2354.5,2577.5 C 2362.17,2577.5 2369.83,2577.5 2377.5,2577.5C 2377.5,2672.83 2377.5,2768.17 2377.5,2863.5C 2229.98,2862.65 2083.98,2847.49 1939.5,2818C 1892.07,2763.93 1847.4,2707.76 1805.5,2649.5C 1886.54,2627.33 1968.87,2610.83 2052.5,2600C 2152.88,2586.8 2253.55,2579.3 2354.5,2577.5 Z"/></g>
<g><path style="opacity:1" fill="#00ac4f" d="M 2426.5,2577.5 C 2614.91,2578.26 2800.58,2600.93 2983.5,2645.5C 2941.7,2705.86 2896.36,2763.69 2847.5,2819C 2708.56,2846.92 2568.23,2861.75 2426.5,2863.5C 2426.5,2768.17 2426.5,2672.83 2426.5,2577.5 Z"/></g>
<g><path style="opacity:1" fill="#04ac50" d="M 3033.5,2660.5 C 3087.96,2675.6 3140.96,2694.77 3192.5,2718C 3105.92,2752.64 3017.26,2780.3 2926.5,2801C 2963.53,2755.14 2999.2,2708.31 3033.5,2660.5 Z"/></g>
<g><path style="opacity:1" fill="#07ac50" d="M 1752.5,2663.5 C 1753.98,2663.24 1755.31,2663.57 1756.5,2664.5C 1789.49,2710.33 1823.83,2755.16 1859.5,2799C 1790.81,2782.84 1723.15,2762.84 1656.5,2739C 1639.42,2732.8 1622.42,2726.3 1605.5,2719.5C 1626.23,2709.08 1647.56,2699.92 1669.5,2692C 1697.01,2681.77 1724.68,2672.27 1752.5,2663.5 Z"/></g>
</svg>
